<?xml version="1.0" encoding="UTF-8" standalone="no"?>
<!-- Uploaded to: SVG Repo, www.svgrepo.com, Generator: SVG Repo Mixer Tools -->

<svg
   width="800px"
   height="800px"
   viewBox="0 0 128 128"
   aria-hidden="true"
   role="img"
   class="iconify iconify--noto"
   preserveAspectRatio="xMidYMid meet"
   version="1.1"
   id="svg11"
   sodipodi:docname="funeral-urn-svgrepo-com.svg"
   inkscape:version="1.4 (86a8ad7, 2024-10-11)"
   xmlns:inkscape="http://www.inkscape.org/namespaces/inkscape"
   xmlns:sodipodi="http://sodipodi.sourceforge.net/DTD/sodipodi-0.dtd"
   xmlns="http://www.w3.org/2000/svg"
   xmlns:svg="http://www.w3.org/2000/svg">
  <defs
     id="defs11" />
  <sodipodi:namedview
     id="namedview11"
     pagecolor="#ffffff"
     bordercolor="#000000"
     borderopacity="0.25"
     inkscape:showpageshadow="2"
     inkscape:pageopacity="0.0"
     inkscape:pagecheckerboard="0"
     inkscape:deskcolor="#d1d1d1"
     inkscape:zoom="0.69125"
     inkscape:cx="399.27667"
     inkscape:cy="400"
     inkscape:window-width="1147"
     inkscape:window-height="755"
     inkscape:window-x="490"
     inkscape:window-y="14"
     inkscape:window-maximized="0"
     inkscape:current-layer="svg11" />
  <path
     d="m 98.80783,27.854141 c -3.04,-3.49 -7.2,-4.23 -8.46,-5.53 -1.83,-1.9 -1.02,-4.23 -1.02,-4.23 h -41.86 c 0,0 0.81,2.33 -1.02,4.23 -1.26,1.3 -5.42,2.05 -8.46,5.53 -2.6,2.98 -5.73,3.42 -4.22,31.98 1.99,37.8 15.53,58.409999 15.53,58.409999 0,0 6.83,4.83 19.1,4.83 12.27,0 19.1,-4.82 19.1,-4.82 0,0 13.54,-20.609999 15.53,-58.409999 1.5,-28.56 -1.62,-29.01 -4.22,-31.99 z"
     fill="#f3ab47"
     id="path1" />
  <path
     d="m 68.69783,26.194141 c 11.14,0 18.6,-1.92 22.47,-3.27 -0.34,-0.19 -0.62,-0.39 -0.82,-0.6 -1.83,-1.9 -1.02,-4.23 -1.02,-4.23 0,0 1.61,-0.68 2.57,-2.21 l -1.53,-3.58 h -40.41 l -2.29,1.41 -0.59,4.17 c 0.24,0.13 0.4,0.2 0.4,0.2 0,0 0.81,2.33 -1.02,4.23 -0.01,0.01 5.05,3.88 22.24,3.88 z"
     fill="#b24938"
     id="path2" />
  <path
     d="m 69.12783,48.384141 c -17.63,0 -30.42,-4.42 -35.65,-6.59 l 0.38,-3.24 c 4.3,1.85 17.3,6.71 35.26,6.71 17.97,0 30.03,-4.84 33.97,-6.68 l 0.32,3.29 c -4.99,2.21 -16.92,6.51 -34.28,6.51 z"
     fill="#d85a41"
     id="path3" />
  <path
     d="m 68.88783,116.85414 c -11.99,0 -20.33,-4.43 -23.78,-6.67 l -1.77,-4.72 c 0.09,0.07 10.96,8.39 25.55,8.39 14.61,0 24.7,-8.32 24.78,-8.39 l -2.08,4.95 c -3.43,2.32 -11.13,6.44 -22.7,6.44 z"
     fill="#d85a41"
     id="path4" />
  <path
     d="m 69.12783,57.924141 c -18.03,0 -30.5,-4.36 -35.65,-6.55 v -3.42 c 3.75,1.71 16.59,6.86 35.65,6.86 18.95,0 30.82,-5.09 34.29,-6.81 v 3.47 c -4.92,2.22 -16.55,6.45 -34.29,6.45 z"
     fill="#d85a41"
     id="path5" />
  <path
     d="m 39.54783,56.834141 c 1.94,0.6 5.72,1.66 9.85,2.21 0.57,0.08 0.95,0.62 0.85,1.18 -0.46,2.62 -1.38,10.29 0.22,24.76 1.27,11.56 2.74,20.049999 3.37,23.459999 0.13,0.68 -0.58,1.19 -1.19,0.88 l -3.19,-1.64 c -0.57,-0.29 -1.01,-0.76 -1.27,-1.34 -2.73,-6.03 -9.13,-26.009999 -9.95,-48.509999 -0.03,-0.69 0.64,-1.2 1.31,-1 z"
     opacity="0.55"
     fill="#fff9c4"
     id="path6" />
  <path
     d="m 39.14783,50.154141 v -3.88 c 0,-0.55 0.55,-0.93 1.06,-0.73 0.88,0.35 2.28,0.83 4.04,1.22 2.17,0.48 4.38,0.86 5.53,1.05 0.47,0.08 0.82,0.48 0.82,0.96 v 4.33 c 0,0 -3.84,-0.84 -7.12,-1.6 -3.28,-0.76 -4.33,-1.35 -4.33,-1.35 z"
     opacity="0.55"
     fill="#fff9c4"
     id="path7" />
  <path
     d="m 38.700759,32.971465 c 0,2.51 1.87,3.43 8.76,4.85 4.65,0.96 6.08,0.56 8.73,-1.48 2.48,-1.92 5.22,-5.7 5.22,-5.7 -3.26,-0.38 -6.26,-1.15 -9.47,-1.83 -2.89,-0.61 -5.94,-2.27 -8.72,-0.75 -1.57,0.85 -4.52,2.86 -4.52,4.91 z"
     opacity="0.55"
     fill="#fff9c4"
     id="path8" />
  <path
     d="m 44.19783,10.054141 c 0,-1.13 10.84,-6.98 24.2,-6.98 13.36,0 24.2,5.64 24.2,6.98 0,3.43 -10.83,6.21 -24.2,6.21 -13.37,0 -24.2,-2.78 -24.2,-6.21 z"
     fill="#ffbc6c"
     id="path9" />
  <path
     d="m 92.59783,10.054141 c 0,3.43 -10.83,6.21 -24.2,6.21 -13.36,0 -24.2,-2.78 -24.2,-6.21 v 4.08 c 0,1.17 0.23,2.59 1.65,3.32 1.76,0.9 3.58,1.29 4.57,1.55 4.85,1.24 11.23,1.93 17.98,1.93 6.75,0 13.13,-0.68 17.98,-1.93 0.99,-0.25 2.78,-0.71 4.57,-1.55 1.42,-0.66 1.65,-2.15 1.65,-3.32 z"
     fill="#e5912c"
     id="path10" />
  <path
     d="m 64.83783,4.354141 c 1.16,-0.17 1.81,1.06 0.87,1.66 -1.72,1.09 -3.59,2.43 -4.83,3.69 -2.74,2.8 -3.83,4.54 -3.83,4.54 -7.97,-1.38 -10.94,-3.4 -10.94,-3.4 0,0 4.93,-2.83 9.63,-4.52 2.43,-0.87 6.11,-1.53 9.1,-1.97 z"
     opacity="0.55"
     fill="#fff9c4"
     id="path11" />
</svg>
